<?xml version="1.0" standalone="no"?>
<!DOCTYPE svg PUBLIC "-//W3C//DTD SVG 20010904//EN"
 "http://www.w3.org/TR/2001/REC-SVG-20010904/DTD/svg10.dtd">
<svg version="1.0" xmlns="http://www.w3.org/2000/svg"
 width="953.000000pt" height="451.000000pt" viewBox="0 0 953.000000 451.000000"
 preserveAspectRatio="xMidYMid meet">

<g transform="translate(0.000000,451.000000) scale(0.100000,-0.100000)"
fill="#000000" stroke="none">
<path d="M1810 4487 c-87 -29 -160 -85 -209 -158 -53 -80 -66 -125 -66 -234 0
-80 4 -98 32 -157 56 -119 158 -200 286 -228 l57 -13 0 -49 c0 -47 1 -48 30
-48 29 0 30 1 30 49 l0 49 50 11 c199 43 334 228 317 433 -22 256 -284 428
-527 345z"/>
<path d="M90 3658 c-159 -81 -87 -323 90 -306 163 16 205 234 60 308 -51 26
-95 25 -150 -2z"/>
<path d="M9310 3673 c-36 -14 -72 -48 -91 -86 -58 -113 34 -247 161 -235 163
16 205 234 60 308 -37 19 -98 25 -130 13z"/>
<path d="M1910 3355 l0 -105 30 0 30 0 0 105 0 105 -30 0 -30 0 0 -105z"/>
<path d="M90 3158 c-159 -81 -87 -323 90 -306 163 16 205 234 60 308 -51 26
-95 25 -150 -2z"/>
<path d="M9310 3173 c-36 -14 -72 -48 -91 -86 -58 -113 34 -247 161 -235 163
16 205 234 60 308 -37 19 -98 25 -130 13z"/>
<path d="M1910 3005 l0 -105 30 0 30 0 0 105 0 105 -30 0 -30 0 0 -105z"/>
<path d="M1910 2655 l0 -105 30 0 30 0 0 105 0 105 -30 0 -30 0 0 -105z"/>
<path d="M90 2658 c-159 -81 -87 -323 90 -306 163 16 205 234 60 308 -51 26
-95 25 -150 -2z"/>
<path d="M9310 2673 c-36 -14 -72 -48 -91 -86 -58 -113 34 -247 161 -235 163
16 205 234 60 308 -37 19 -98 25 -130 13z"/>
<path d="M1910 2305 l0 -105 30 0 30 0 0 105 0 105 -30 0 -30 0 0 -105z"/>
<path d="M90 2158 c-159 -81 -87 -323 90 -306 163 16 205 234 60 308 -51 26
-95 25 -150 -2z"/>
<path d="M9310 2173 c-36 -14 -72 -48 -91 -86 -58 -113 34 -247 161 -235 163
16 205 234 60 308 -37 19 -98 25 -130 13z"/>
<path d="M1910 1955 l0 -105 30 0 30 0 0 105 0 105 -30 0 -30 0 0 -105z"/>
<path d="M1910 1605 l0 -105 30 0 30 0 0 105 0 105 -30 0 -30 0 0 -105z"/>
<path d="M90 1658 c-159 -81 -87 -323 90 -306 163 16 205 234 60 308 -51 26
-95 25 -150 -2z"/>
<path d="M9310 1673 c-36 -14 -72 -48 -91 -86 -58 -113 34 -247 161 -235 163
16 205 234 60 308 -37 19 -98 25 -130 13z"/>
<path d="M1910 1255 l0 -105 30 0 30 0 0 105 0 105 -30 0 -30 0 0 -105z"/>
<path d="M90 1128 c-159 -81 -87 -323 90 -306 163 16 205 234 60 308 -51 26
-95 25 -150 -2z"/>
<path d="M9310 1143 c-36 -14 -72 -48 -91 -86 -58 -113 34 -247 161 -235 163
16 205 234 60 308 -37 19 -98 25 -130 13z"/>
<path d="M1910 911 l0 -98 -54 -11 c-256 -51 -397 -332 -287 -568 118 -252
454 -312 650 -116 226 226 116 608 -196 682 l-53 12 0 99 0 99 -30 0 -30 0 0
-99z"/>
</g>
</svg>
