<svg version="1.1" id="Layer_1" xmlns="http://www.w3.org/2000/svg" xmlns:xlink="http://www.w3.org/1999/xlink" x="0px" y="0px"
	 width="100%" viewBox="0 0 953 451" enable-background="new 0 0 953 451" xml:space="preserve">
<path fill="#FDDFE7" opacity="1.000000" stroke="none" 
	d="
M317.000000,411.999542 
	C289.522705,411.999542 262.545410,411.999542 235.384308,411.999542 
	C233.401978,388.809113 221.118317,375.074127 198.041687,370.791718 
	C198.041687,364.442139 198.041687,357.989868 198.041687,351.272156 
	C196.004837,351.272156 194.267776,351.272156 192.152283,351.272156 
	C192.152283,357.642578 192.152283,364.080353 192.152283,370.848541 
	C181.340317,372.115204 172.074265,376.080963 164.790924,383.986816 
	C157.619919,391.770752 154.173477,401.065247 153.875824,411.777161 
	C108.639091,411.777161 63.555752,411.777161 18.236328,411.777161 
	C18.236328,397.901459 18.236328,384.139954 18.236328,370.385742 
	C28.844595,367.587341 34.088493,361.917816 33.999321,353.369873 
	C33.909039,344.715515 28.485632,338.966278 18.190445,336.772095 
	C18.190445,330.359924 18.190445,323.904510 18.190445,317.462311 
	C29.100950,314.395508 34.295013,308.625671 33.997505,299.945618 
	C33.708115,291.502441 28.339575,285.937622 18.000504,283.736664 
	C18.000504,281.054199 18.000504,278.268616 18.000504,275.483032 
	C18.000504,272.827576 18.000504,270.172119 18.000504,267.582611 
	C29.026436,264.287140 34.015617,258.914703 33.999676,250.521255 
	C33.983456,241.980515 28.914228,236.517258 18.113503,233.490372 
	C18.113503,228.211411 18.113503,222.900452 18.113503,217.612732 
	C29.357374,214.043411 34.217064,208.666809 33.998150,200.096985 
	C33.783756,191.704147 28.653227,186.326431 18.132587,183.561432 
	C18.090679,182.945206 18.009016,182.289642 18.007444,181.633881 
	C17.996279,176.975571 18.001499,172.317215 18.001499,169.010727 
	C22.831203,165.653671 27.521618,163.391907 30.739122,159.807846 
	C32.903049,157.397385 33.794533,153.125992 33.834129,149.670868 
	C33.927822,141.494308 28.325487,136.133148 18.222742,133.650146 
	C18.152721,133.184418 18.017355,132.697144 18.015751,132.209457 
	C17.999868,127.382965 18.006142,122.556396 18.006142,119.159378 
	C22.930273,115.612663 27.695372,113.188301 30.974724,109.457848 
	C33.097820,107.042702 33.858223,102.707016 33.810860,99.251358 
	C33.699608,91.134590 28.152637,85.988174 18.194798,83.709953 
	C18.194798,69.963547 18.194798,56.192612 18.194798,42.211456 
	C63.472206,42.211456 108.555511,42.211456 153.616974,42.211456 
	C157.134216,66.151390 168.964600,78.585571 191.913086,82.123360 
	C191.913086,85.237358 191.913086,88.460114 191.913086,91.831284 
	C194.054596,91.831284 195.680740,91.831284 197.801422,91.831284 
	C197.801422,88.703674 197.801422,85.463997 197.801422,82.361794 
	C222.659134,75.574409 233.250534,64.174171 235.113297,42.312916 
	C469.152527,42.312916 703.218811,42.312916 937.642395,42.312916 
	C937.642395,55.823456 937.642395,69.559914 937.642395,81.985703 
	C932.788513,85.196472 927.817017,87.503288 924.276978,91.186035 
	C922.068420,93.483597 921.192993,97.851738 921.165894,101.302055 
	C921.097595,109.993790 927.236938,115.582581 937.999573,117.391029 
	C937.999573,119.981934 937.999634,122.628899 937.999634,125.275864 
	C937.999634,127.935417 937.999573,130.594971 937.999573,131.766327 
	C932.827942,135.172836 927.789856,137.431824 924.320312,141.153214 
	C922.047729,143.590698 921.160706,148.155075 921.202881,151.748642 
	C921.303101,160.285202 927.464539,165.688431 937.832153,167.319702 
	C937.832153,172.596405 937.832153,177.902206 937.832153,183.637070 
	C932.327881,184.382782 926.780273,185.985672 923.952759,191.368927 
	C922.323792,194.470322 921.133240,198.247818 921.186157,201.698914 
	C921.317627,210.277176 927.520203,215.763641 937.821899,217.274521 
	C937.821899,222.703766 937.821899,228.159790 937.821899,233.594101 
	C926.724548,235.661636 920.895142,241.608063 921.000671,250.652664 
	C921.106628,259.736450 927.180054,265.783478 937.999573,267.254639 
	C937.999573,270.008820 937.999634,272.818207 937.999634,275.627594 
	C937.999634,278.276672 937.999573,280.925781 937.999573,283.517303 
	C926.592224,285.765015 920.664307,291.980713 921.002625,301.103180 
	C921.332764,310.003906 927.406921,315.878357 937.801575,317.183197 
	C937.801575,323.612183 937.801575,330.068848 937.801575,336.515198 
	C926.504211,338.865540 920.691406,344.950958 921.002380,354.053772 
	C921.306885,362.967224 927.396118,368.884033 937.780029,370.170380 
	C937.780029,383.909302 937.780029,397.677338 937.780029,411.999542 
	C730.994934,411.999542 524.247498,411.999542 317.000000,411.999542 
M192.004257,107.771301 
	C192.004257,114.150253 192.004257,120.529205 192.004257,127.077454 
	C194.356506,126.954857 196.087387,126.864639 197.763062,126.777298 
	C197.763062,119.686760 197.763062,112.986588 197.763062,105.681297 
	C195.644104,106.104507 193.848953,106.463051 192.004257,107.771301 
M192.000122,144.686798 
	C192.000122,150.440414 192.000122,156.194031 192.000122,161.829895 
	C194.325500,161.829895 195.949646,161.829895 197.785095,161.829895 
	C197.785095,154.910583 197.785095,148.159454 197.785095,140.786911 
	C195.688828,142.036255 192.025085,138.471725 192.000122,144.686798 
M197.944901,196.188950 
	C197.944901,189.482254 197.944901,182.775543 197.944901,175.909012 
	C195.627563,176.039047 193.896698,176.136185 192.246735,176.228775 
	C192.246735,183.341324 192.246735,190.044052 192.246735,196.923935 
	C194.108551,196.923935 195.730728,196.923935 197.944901,196.188950 
M192.000092,226.384247 
	C192.000092,228.169037 192.000092,229.953827 192.000092,231.752960 
	C194.226151,231.752960 195.962250,231.752960 197.752014,231.752960 
	C197.752014,224.753464 197.752014,218.002777 197.752014,211.253082 
	C195.756393,211.253082 194.018845,211.253082 192.000092,211.253082 
	C192.000092,216.138107 192.000092,220.776749 192.000092,226.384247 
M197.999878,263.313202 
	C197.999878,257.559570 197.999878,251.805969 197.999878,246.170105 
	C195.674515,246.170105 194.050354,246.170105 192.214905,246.170105 
	C192.214905,253.089554 192.214905,259.840607 192.214905,267.213074 
	C194.311172,265.963745 197.974915,269.528320 197.999878,263.313202 
M192.000092,286.615631 
	C192.000092,291.721466 192.000092,296.827271 192.000092,302.093994 
	C194.380905,301.961853 196.122803,301.865173 197.679016,301.778778 
	C197.679016,294.573151 197.679016,287.821777 197.679016,281.146057 
	C195.726532,281.146057 194.095871,281.146057 192.000092,281.146057 
	C192.000092,282.739624 192.000092,284.193054 192.000092,286.615631 
M197.354691,336.923187 
	C197.354691,329.975647 197.354691,323.028107 197.354691,315.934570 
	C195.585114,316.035095 193.859329,316.133118 192.261185,316.223907 
	C192.261185,323.378510 192.261185,330.080994 192.261185,336.993683 
	C193.817383,336.993683 195.113770,336.993683 197.354691,336.923187 
z"/>
</svg>